<svg xmlns="http://www.w3.org/2000/svg" viewBox="0 0 30.8 45.2"><defs><style>.cls-1{fill:#e85966;}.cls-1,.cls-2,.cls-3{stroke:#1d1d1b;stroke-linejoin:round;stroke-width:2px;}.cls-2{fill:#5b539f;}.cls-3{fill:#f6f6f6;}</style></defs><title>gondel</title><g id="Ebene_2" data-name="Ebene 2"><g id="Ebene_2-2" data-name="Ebene 2"><path class="cls-1" d="M29.8,9.1h0A8.41,8.41,0,0,0,21.16,1H9.64A8.41,8.41,0,0,0,1,9.1H29.8Z"/><line class="cls-1" x1="6.76" y1="9.1" x2="6.76" y2="22.6"/><line class="cls-1" x1="24.04" y1="9.1" x2="24.04" y2="22.6"/><path class="cls-1" d="M1.41,22.6h28a.41.41,0,0,1,.41.41V33.1a9.3,9.3,0,0,1-9.3,9.3H10.3A9.3,9.3,0,0,1,1,33.1V23A.41.41,0,0,1,1.41,22.6Z"/><rect class="cls-1" x="1" y="22.6" width="28.8" height="5.4"/><rect class="cls-2" x="1" y="28" width="5.76" height="16.2"/><rect class="cls-3" x="6.76" y="28" width="5.76" height="16.2"/><rect class="cls-2" x="12.52" y="28" width="5.76" height="16.2"/><rect class="cls-3" x="18.28" y="28" width="5.76" height="16.2"/><rect class="cls-2" x="24.04" y="28" width="5.76" height="16.2"/></g></g></svg>