<svg xmlns="http://www.w3.org/2000/svg" viewBox="0 0 261.2 153.2"><defs><style>.cls-1{fill:#5b539f;}.cls-1,.cls-2,.cls-3,.cls-4,.cls-5{stroke:#1d1d1b;stroke-linejoin:round;stroke-width:2px;}.cls-2{fill:#bfabd4;}.cls-3{fill:#e85966;}.cls-4{fill:#f6f6f6;}.cls-5{fill:#dadada;}</style></defs><title>roe</title><g id="Ebene_2" data-name="Ebene 2"><g id="Ebene_2-2" data-name="Ebene 2"><g id="Beine"><g id="Beine-2" data-name="Beine"><polygon class="cls-1" points="130.5 73 87.2 152.2 101.8 152.2 130.56 73.11 130.5 73"/><polygon class="cls-1" points="130.8 73.55 159.4 152.2 173.8 152.2 130.8 73.55"/></g><line class="cls-2" x1="73" y1="152.2" x2="188.2" y2="152.2"/></g><g id="rad"><line class="cls-1" x1="130.55" y1="15.17" x2="130.55" y2="130.37"/><line class="cls-1" x1="188.15" y1="72.77" x2="72.95" y2="72.77"/><line class="cls-1" x1="171.28" y1="32.04" x2="89.82" y2="113.5"/><line class="cls-1" x1="171.28" y1="113.5" x2="89.82" y2="32.04"/><circle class="cls-1" cx="130.55" cy="72.77" r="7.2"/><path class="cls-2" d="M130.55,11.57a61.2,61.2,0,1,0,61.2,61.2A61.2,61.2,0,0,0,130.55,11.57Zm0,115.2a54,54,0,1,1,54-54A54,54,0,0,1,130.55,126.77Z"/></g><g id="gonde"><path class="cls-3" d="M143.2,109.9h0a8.41,8.41,0,0,0-8.64-8.1H123a8.41,8.41,0,0,0-8.64,8.1h28.8Z"/><line class="cls-3" x1="120.16" y1="109.9" x2="120.16" y2="123.4"/><line class="cls-3" x1="137.44" y1="109.9" x2="137.44" y2="123.4"/><path class="cls-3" d="M114.81,123.4h28a.41.41,0,0,1,.41.41v10.1a9.3,9.3,0,0,1-9.3,9.3H123.7a9.3,9.3,0,0,1-9.3-9.3v-10.1A.41.41,0,0,1,114.81,123.4Z"/><rect class="cls-3" x="114.4" y="123.4" width="28.8" height="5.4"/><rect class="cls-1" x="114.4" y="128.8" width="5.76" height="16.2"/><rect class="cls-4" x="120.16" y="128.8" width="5.76" height="16.2"/><rect class="cls-1" x="125.92" y="128.8" width="5.76" height="16.2"/><rect class="cls-4" x="131.68" y="128.8" width="5.76" height="16.2"/><rect class="cls-1" x="137.44" y="128.8" width="5.76" height="16.2"/></g><g id="gondel"><path class="cls-3" d="M87.4,66.7h0a8.41,8.41,0,0,0-8.64-8.1H67.24a8.41,8.41,0,0,0-8.64,8.1H87.4Z"/><line class="cls-3" x1="64.36" y1="66.7" x2="64.36" y2="80.2"/><line class="cls-3" x1="81.64" y1="66.7" x2="81.64" y2="80.2"/><path class="cls-3" d="M59,80.2H87a.41.41,0,0,1,.41.41V90.7a9.3,9.3,0,0,1-9.3,9.3H67.9a9.3,9.3,0,0,1-9.3-9.3V80.61A.41.41,0,0,1,59,80.2Z"/><rect class="cls-3" x="58.6" y="80.2" width="28.8" height="5.4"/><rect class="cls-1" x="58.6" y="85.6" width="5.76" height="16.2"/><rect class="cls-4" x="64.36" y="85.6" width="5.76" height="16.2"/><rect class="cls-1" x="70.12" y="85.6" width="5.76" height="16.2"/><rect class="cls-4" x="75.88" y="85.6" width="5.76" height="16.2"/><rect class="cls-1" x="81.64" y="85.6" width="5.76" height="16.2"/></g><g id="gondel-2" data-name="gondel"><path class="cls-3" d="M202.6,73.9h0A8.41,8.41,0,0,0,194,65.8H182.44a8.41,8.41,0,0,0-8.64,8.1h28.8Z"/><line class="cls-3" x1="179.56" y1="73.9" x2="179.56" y2="87.4"/><line class="cls-3" x1="196.84" y1="73.9" x2="196.84" y2="87.4"/><path class="cls-3" d="M174.21,87.4h28a.41.41,0,0,1,.41.41V97.9a9.3,9.3,0,0,1-9.3,9.3H183.1a9.3,9.3,0,0,1-9.3-9.3V87.81A.41.41,0,0,1,174.21,87.4Z"/><rect class="cls-3" x="173.8" y="87.4" width="28.8" height="5.4"/><rect class="cls-1" x="173.8" y="92.8" width="5.76" height="16.2"/><rect class="cls-4" x="179.56" y="92.8" width="5.76" height="16.2"/><rect class="cls-1" x="185.32" y="92.8" width="5.76" height="16.2"/><rect class="cls-4" x="191.08" y="92.8" width="5.76" height="16.2"/><rect class="cls-1" x="196.84" y="92.8" width="5.76" height="16.2"/></g><g id="gondel-3" data-name="gondel"><path class="cls-3" d="M109,9.1h0A8.41,8.41,0,0,0,100.36,1H88.84A8.41,8.41,0,0,0,80.2,9.1H109Z"/><line class="cls-3" x1="85.96" y1="9.1" x2="85.96" y2="22.6"/><line class="cls-3" x1="103.24" y1="9.1" x2="103.24" y2="22.6"/><path class="cls-3" d="M80.61,22.6h28A.41.41,0,0,1,109,23V33.1a9.3,9.3,0,0,1-9.3,9.3H89.5a9.3,9.3,0,0,1-9.3-9.3V23A.41.41,0,0,1,80.61,22.6Z"/><rect class="cls-3" x="80.2" y="22.6" width="28.8" height="5.4"/><rect class="cls-1" x="80.2" y="28" width="5.76" height="16.2"/><rect class="cls-4" x="85.96" y="28" width="5.76" height="16.2"/><rect class="cls-1" x="91.72" y="28" width="5.76" height="16.2"/><rect class="cls-4" x="97.48" y="28" width="5.76" height="16.2"/><rect class="cls-1" x="103.24" y="28" width="5.76" height="16.2"/></g><path class="cls-3" d="M181,9.1h0A8.41,8.41,0,0,0,172.36,1H160.84a8.41,8.41,0,0,0-8.64,8.1H181Z"/><line class="cls-3" x1="157.96" y1="9.1" x2="157.96" y2="22.6"/><line class="cls-3" x1="175.24" y1="9.1" x2="175.24" y2="22.6"/><path class="cls-3" d="M152.61,22.6h28A.41.41,0,0,1,181,23V33.1a9.3,9.3,0,0,1-9.3,9.3H161.5a9.3,9.3,0,0,1-9.3-9.3V23A.41.41,0,0,1,152.61,22.6Z"/><rect class="cls-3" x="152.2" y="22.6" width="28.8" height="5.4"/><rect class="cls-1" x="152.2" y="28" width="5.76" height="16.2"/><rect class="cls-4" x="157.96" y="28" width="5.76" height="16.2"/><rect class="cls-1" x="163.72" y="28" width="5.76" height="16.2"/><rect class="cls-4" x="169.48" y="28" width="5.76" height="16.2"/><rect class="cls-1" x="175.24" y="28" width="5.76" height="16.2"/><path id="wolke" class="cls-5" d="M37,15.4H15.4a7.22,7.22,0,0,0-7.2,7.2h0A7.2,7.2,0,0,0,8.2,37H29.8A7.22,7.22,0,0,0,37,29.8a7.22,7.22,0,0,0,7.2-7.2h0A7.22,7.22,0,0,0,37,15.4Z"/><path id="wolke-2" data-name="wolke" class="cls-5" d="M253,73H231.4a7.22,7.22,0,0,0-7.2,7.2h0a7.2,7.2,0,1,0,0,14.4h21.6a7.22,7.22,0,0,0,7.2-7.2,7.22,7.22,0,0,0,7.2-7.2h0A7.22,7.22,0,0,0,253,73Z"/><path id="wolke-3" data-name="wolke" class="cls-5" d="M48.8,54.4H37.4a3.81,3.81,0,0,0-3.8,3.8h0a3.8,3.8,0,0,0,0,7.6H45A3.81,3.81,0,0,0,48.8,62a3.81,3.81,0,0,0,3.8-3.8h0A3.81,3.81,0,0,0,48.8,54.4Z"/><path id="wolke-4" data-name="wolke" class="cls-5" d="M228.8,44.2H217.4a3.81,3.81,0,0,0-3.8,3.8h0a3.8,3.8,0,1,0,0,7.6H225a3.81,3.81,0,0,0,3.8-3.8,3.81,3.81,0,0,0,3.8-3.8h0A3.81,3.81,0,0,0,228.8,44.2Z"/></g></g></svg>